<svg xmlns="http://www.w3.org/2000/svg" width="3300" height="1395"><path fill="#3dadb2" d="M0 0h3300v1395H0z"/><path d="M335.854 435.096c7.027 0 12.297 5.622 12.297 12.648v25.648c0 6.675-5.27 12.296-12.297 12.296H162.297c-6.676 0-12.297-5.621-12.297-12.296v-25.648c0-7.026 5.621-12.648 12.297-12.648h173.557zM162.297 380.64c-6.676 0-12.297-5.621-12.297-12.297v-26.35c0-6.675 5.621-12.296 12.297-12.296h157.748c7.026 0 12.647 5.621 12.647 12.296v26.35c0 6.676-5.62 12.297-12.647 12.297H162.297zM335.854 225c7.027 0 12.297 5.621 12.297 12.297v25.647c0 7.026-5.27 12.648-12.297 12.648H162.297c-6.676 0-12.297-5.622-12.297-12.648v-25.647c0-6.676 5.621-12.297 12.297-12.297h173.557zm220.637 207.988c7.026 0 12.296 5.622 12.296 12.297v25.296c0 6.675-5.27 12.296-12.296 12.296H402.959c-6.675 0-12.297-5.62-12.297-12.296V237.297c0-6.676 5.622-12.297 12.297-12.297h26.35c6.675 0 12.296 5.621 12.296 12.297v195.691h114.886zM780.99 225c6.676 0 11.946 5.621 11.946 12.297v25.295c0 6.676-5.27 12.297-11.945 12.297h-69.213v195.692c0 6.675-5.62 12.296-12.296 12.296h-26.35c-7.027 0-12.297-5.62-12.297-12.296V274.889h-69.212c-6.675 0-12.297-5.621-12.297-12.297v-25.295c0-6.676 5.622-12.297 12.297-12.297h189.368zm246.284 0c6.676 0 11.945 5.621 11.945 12.297V470.58c0 6.675-5.27 12.296-11.945 12.296h-26.701c-6.675 0-11.945-5.62-11.945-12.296v-91.698H877.257v91.698c0 6.675-5.622 12.296-12.297 12.296h-26.35c-6.675 0-12.297-5.62-12.297-12.296V237.297c0-6.676 5.622-12.297 12.297-12.297h26.35c6.675 0 12.297 5.621 12.297 12.297v91.346h111.372v-91.346c0-6.676 5.27-12.297 11.945-12.297h26.701zm198.151 7.378l98.373 232.23c1.054 1.757 1.757 3.865 1.757 5.973 0 6.675-5.27 12.296-12.297 12.296h-29.16c-4.919 0-9.486-2.81-11.243-7.378l-25.647-60.429h-99.427l-25.296 60.43c-1.757 4.567-6.324 7.377-11.243 7.377h-29.16c-4.216 0-8.08-2.108-10.189-5.62-2.459-3.163-2.81-7.73-1.054-11.243l99.076-233.636c1.757-4.567 6.324-7.378 11.242-7.378h33.026c4.918 0 9.486 2.81 11.242 7.378zm-27.755 63.942l-29.16 69.915h58.32zM1595.027 225c6.675 0 12.297 5.621 12.297 12.297V470.58c0 6.675-5.622 12.296-12.297 12.296h-26.35c-6.675 0-12.296-5.62-12.296-12.296V313.184l-64.645 82.915c-2.108 2.81-5.622 4.567-9.486 4.567-3.865 0-7.378-1.757-9.486-4.567l-66.05-83.266V470.58c0 6.675-5.622 12.296-12.297 12.296h-26.35c-6.675 0-12.297-5.62-12.297-12.296V237.297c0-6.676 5.622-12.297 12.297-12.297h30.566c3.864 0 7.378 1.757 9.837 4.919l73.78 97.67 72.374-97.67c2.108-3.162 5.973-4.919 9.837-4.919h30.566zm383.654 107.508a12.595 12.595 0 0112.648 12.647v25.999c0 6.675-5.621 12.297-12.648 12.297h-115.588v89.94c0 6.676-5.27 12.297-12.296 12.297h-26.702c-6.675 0-12.296-5.621-12.296-12.296V345.155c0-7.026 5.621-12.647 12.296-12.647h154.586zM1994.491 225c6.676 0 12.297 5.621 12.297 12.297v25.647c0 7.026-5.621 12.648-12.297 12.648h-170.396c-6.675 0-12.296-5.622-12.296-12.648v-25.647c0-6.676 5.621-12.297 12.296-12.297h170.396zm178.477 7.378l98.373 232.23c1.054 1.757 1.756 3.865 1.756 5.973 0 6.675-5.27 12.296-12.296 12.296h-29.16c-4.92 0-9.487-2.81-11.243-7.378l-25.648-60.429h-99.426l-25.296 60.43c-1.757 4.567-6.324 7.377-11.243 7.377h-29.16c-4.216 0-8.081-2.108-10.19-5.62-2.458-3.163-2.81-7.73-1.053-11.243l99.075-233.636c1.757-4.567 6.324-7.378 11.243-7.378h33.025c4.919 0 9.486 2.81 11.243 7.378zm-27.755 63.942l-29.16 69.915h58.32zM2542.569 225c6.675 0 12.296 5.621 12.296 12.297V470.58c0 6.675-5.621 12.296-12.296 12.296h-26.35c-6.675 0-12.297-5.62-12.297-12.296V313.184l-64.645 82.915c-2.108 2.81-5.621 4.567-9.486 4.567-3.864 0-7.378-1.757-9.486-4.567l-66.05-83.266V470.58c0 6.675-5.621 12.296-12.297 12.296h-26.35c-6.675 0-12.296-5.62-12.296-12.296V237.297c0-6.676 5.621-12.297 12.296-12.297h30.566c3.865 0 7.378 1.757 9.838 4.919l73.78 97.67 72.374-97.67c2.108-3.162 5.972-4.919 9.837-4.919h30.566zm107.859 0c6.675 0 12.296 5.621 12.296 12.297V470.58c0 6.675-5.621 12.296-12.296 12.296h-26.35c-6.676 0-12.297-5.62-12.297-12.296V237.297c0-6.676 5.621-12.297 12.297-12.297h26.35zm235.04 207.988c7.027 0 12.297 5.622 12.297 12.297v25.296c0 6.675-5.27 12.296-12.297 12.296h-153.531c-6.676 0-12.297-5.62-12.297-12.296V237.297c0-6.676 5.621-12.297 12.297-12.297h26.35c6.675 0 12.296 5.621 12.296 12.297v195.691h114.885zM3137.725 225c4.567 0 8.783 2.46 10.89 6.675 2.109 3.865 1.758 8.784-.702 12.648l-95.562 137.722v88.536c0 6.675-5.621 12.296-12.297 12.296h-26.35c-6.675 0-12.296-5.62-12.296-12.296v-88.536l-95.914-137.722c-2.459-3.864-2.81-8.783-.702-12.648 2.108-4.216 6.324-6.675 10.891-6.675h31.971c4.216 0 7.73 2.108 10.189 5.27l68.86 99.076 68.862-99.076c2.46-3.162 5.972-5.27 10.188-5.27h31.972zM473.21 648.8c30.37 11.569 57.123 30.369 79.538 53.507 50.614 51.337 75.922 117.136 75.922 195.95s-25.308 144.614-75.922 195.951c-22.415 23.138-49.169 41.938-79.538 53.507-29.645 12.292-61.46 18.8-93.275 18.8H175.307c-13.738 0-25.307-11.57-25.307-25.307v-52.061c0-14.461 11.569-26.03 25.307-26.03h202.459c43.384 0 77.368-15.185 104.844-47 26.754-31.815 39.769-70.137 39.769-117.86s-13.015-86.044-39.769-117.86c-27.476-31.814-61.46-46.999-104.844-46.999H175.307c-13.738 0-25.307-11.569-25.307-26.03v-52.06C150 641.568 161.569 630 175.307 630h204.628c31.815 0 63.63 6.508 93.275 18.8zm621.114-18.8c14.461 0 25.307 11.57 25.307 25.307v52.061c0 13.738-10.846 25.307-25.307 25.307H821.005v110.63h241.504c14.461 0 25.307 11.569 25.307 25.307v52.784c0 13.738-10.846 25.307-25.307 25.307H821.005v111.352h273.319c14.461 0 25.307 11.57 25.307 25.307v52.061c0 13.738-10.846 25.307-25.307 25.307H741.468c-13.738 0-25.307-11.569-25.307-25.307V655.307c0-13.738 11.569-25.307 25.307-25.307h352.856zm552.422 0c13.739 0 25.308 11.57 25.308 25.307v480.116c0 13.738-11.57 25.307-25.308 25.307h-63.63c-7.953 0-15.184-3.615-20.245-10.123l-250.904-343.456v328.272c0 13.738-11.57 25.307-25.308 25.307h-54.23c-13.738 0-25.307-11.569-25.307-25.307V655.307c0-13.738 11.57-25.307 25.308-25.307h62.906c7.954 0 15.908 3.615 20.246 10.123l251.627 342.01V655.307c0-13.738 10.846-25.307 24.584-25.307h54.953zm509.039 0c13.738 0 24.584 11.57 24.584 25.307v52.061c0 13.738-10.846 25.307-24.584 25.307H2013.34v402.748c0 13.738-11.57 25.307-25.308 25.307h-54.23c-14.46 0-25.307-11.569-25.307-25.307V732.675h-142.444c-13.738 0-25.307-11.569-25.307-25.307v-52.06c0-13.739 11.569-25.308 25.307-25.308h389.733zm359.363 15.184l202.459 477.947c2.169 3.615 3.615 7.954 3.615 12.292 0 13.738-10.846 25.307-25.307 25.307H2635.9c-10.123 0-19.522-5.784-23.138-15.184l-52.784-124.367h-204.627l-52.061 124.367c-3.615 9.4-13.015 15.184-23.138 15.184h-60.015c-8.676 0-16.63-4.338-20.968-11.569-5.062-6.507-5.785-15.907-2.17-23.138l203.905-480.839c3.615-9.4 13.015-15.184 23.138-15.184h67.968c10.123 0 19.523 5.785 23.138 15.184zm-57.122 131.598l-60.014 143.89h120.029zm666.667 281.273c14.461 0 25.307 11.57 25.307 25.307v52.061c0 13.738-10.846 25.307-25.307 25.307h-315.98c-13.738 0-25.307-11.569-25.307-25.307V655.307c0-13.738 11.569-25.307 25.307-25.307h54.23c13.738 0 25.307 11.57 25.307 25.307v402.748h236.443z" fill="#f9ffff"/></svg>